<?xml version="1.0" encoding="utf-8"?>
<!-- Generator: Adobe Illustrator 16.0.0, SVG Export Plug-In . SVG Version: 6.00 Build 0)  -->
<!DOCTYPE svg PUBLIC "-//W3C//DTD SVG 1.1//EN" "http://www.w3.org/Graphics/SVG/1.1/DTD/svg11.dtd">
<svg version="1.1" id="Layer_1" xmlns="http://www.w3.org/2000/svg" xmlns:xlink="http://www.w3.org/1999/xlink" x="0px" y="0px"
	 width="1091.936px" height="434.678px" viewBox="0 0 1091.936 434.678" enable-background="new 0 0 1091.936 434.678"
	 xml:space="preserve">
<g>
	<path d="M25.745,291.121V134.733l111.706-10.832v22.341l22.341-2.166v22.341l22.341-2.167v67.023l-22.341,2.166v22.342
		l-22.341,2.166v22.341L25.745,291.121z M70.427,264.448l44.683-4.333v-22.341l22.341-2.167v-67.023l-22.341,2.167V148.41
		l-44.683,4.333V264.448z"/>
	<path d="M226.816,271.625v-22.341l-22.341,2.167V139.745l22.341-2.167v-22.341l111.706-10.832v22.341l22.342-2.166v111.706
		l-22.342,2.166v22.341L226.816,271.625z M249.157,247.118l67.024-6.499V128.914l-67.024,6.499V247.118z"/>
	<path d="M405.546,254.295v-22.34l-22.342,2.166V100.073l44.683-4.333v134.047l67.024-6.499V89.242l44.682-4.333v134.047
		l-22.342,2.166v22.342L405.546,254.295z"/>
	<path d="M561.934,239.132V82.744L695.98,69.746v22.341l22.342-2.167v44.683l-22.342,2.166v22.341l22.342-2.167v44.683
		l-22.342,2.167v22.341L561.934,239.132z M606.616,145.435l67.024-6.499V94.253l-67.024,6.499V145.435z M606.616,212.458
		l67.024-6.499v-44.683l-67.024,6.499V212.458z"/>
	<path d="M763.005,219.636V63.248l44.683-4.333v134.047l89.365-8.665v22.341L763.005,219.636z"/>
	<path d="M919.394,204.472V48.083l156.389-15.164v22.341L964.076,66.092v44.682l89.364-8.665v22.341l-89.364,8.665v44.683
		l111.706-10.831v22.341L919.394,204.472z"/>
</g>
<g>
	<path d="M26.597,402.518V309.74l26.507-2.569v13.255l13.254-1.285v13.253l13.253-1.285v-13.253l13.253-1.285v-13.255l26.507-2.57
		v92.776l-26.507,2.57v-53.015l-13.253,1.285v26.507l-13.253,1.285v-26.507l-13.254,1.285v53.015L26.597,402.518z"/>
	<path d="M132.626,392.236v-66.269l13.253-1.284V311.43l13.253-1.285v-13.254l39.761-3.855v13.254l13.253-1.285v13.254l13.253-1.285
		v66.269l-26.507,2.569v-26.508l-39.761,3.855v26.508L132.626,392.236z M159.133,349.904l39.761-3.855v-26.506l-13.253,1.285
		v-13.254l-13.253,1.285v13.254l-13.254,1.285V349.904z"/>
	<path d="M238.654,381.956V289.18l79.522-7.711v13.254l13.253-1.284v39.76l-26.507,2.57v13.254l13.253-1.285v13.254l13.253-1.285
		v13.254l-39.761,3.855v-13.254l-13.253,1.285v-13.254l-13.254,1.285v26.508L238.654,381.956z M265.162,339.624l26.507-2.57v-13.253
		l13.254-1.285v-26.508l-39.761,3.855V339.624z"/>
	<path d="M384.445,367.82v-13.254l-13.254,1.285v-13.254l-13.253,1.285v-13.254l-13.254,1.285v-53.016l26.507-2.57v39.762
		l13.254-1.285v13.254l13.253-1.285V313.52l13.254-1.285v-39.762l26.507-2.569v53.015l-13.253,1.285v13.254l-13.253,1.285v13.254
		l-13.254,1.285v13.254L384.445,367.82z"/>
	<path d="M450.713,361.395v-92.776l92.775-8.996v13.255l-66.269,6.426v26.507l53.015-5.141v13.253l-53.015,5.141v26.508
		l66.269-6.426v13.254L450.713,361.395z"/>
	<path d="M569.995,349.828v-92.775l26.508-2.57v79.521l53.014-5.14v13.254L569.995,349.828z"/>
	<path d="M676.024,339.548v-92.776l26.508-2.57v79.522l53.014-5.14v13.254L676.024,339.548z"/>
	<path d="M782.053,329.268v-13.254l-13.253,1.285V251.03l13.253-1.285V236.49l66.27-6.425v13.254l13.253-1.284v66.268l-13.253,1.285
		v13.254L782.053,329.268z M795.307,314.729l39.762-3.855v-66.269l-39.762,3.855V314.729z"/>
	<path d="M888.082,318.986v-13.254l-13.253,1.285v-79.522l26.507-2.57v79.522l39.762-3.855v-79.522l26.507-2.57v79.522
		l-13.253,1.285v13.254L888.082,318.986z"/>
	<path d="M994.111,308.705v-13.254l-13.253,1.285v-13.254l26.507-2.57v13.254l39.762-3.854v-26.508l-53.016,5.14v-13.252
		l-13.253,1.285v-26.508l13.253-1.285v-13.254l66.269-6.425v13.254l13.254-1.285v13.253l-26.507,2.57v-13.254l-39.762,3.855v26.508
		l53.015-5.141v13.253l13.254-1.285v26.508l-13.254,1.285v13.254L994.111,308.705z"/>
</g>
<g>
	<path fill="#D51084" d="M22.358,278.992V122.604l111.706-10.832v22.341l22.341-2.166v22.341l22.341-2.167v67.023l-22.341,2.167
		v22.341l-22.341,2.166v22.341L22.358,278.992z M67.041,252.319l44.683-4.333v-22.341l22.341-2.167v-67.023l-22.341,2.167V136.28
		l-44.683,4.333V252.319z"/>
	<path fill="#D51084" d="M223.429,259.496v-22.341l-22.341,2.167V127.615l22.341-2.167v-22.341l111.706-10.832v22.341l22.342-2.166
		v111.706l-22.342,2.166v22.341L223.429,259.496z M245.77,234.989l67.024-6.499V116.784l-67.024,6.499V234.989z"/>
	<path fill="#D51084" d="M402.159,242.166v-22.341l-22.342,2.166V87.944l44.683-4.333v134.047l67.024-6.499V77.113l44.682-4.333
		v134.047l-22.342,2.167v22.341L402.159,242.166z"/>
	<path fill="#D51084" d="M558.547,227.002V70.614l134.046-12.998v22.341l22.342-2.167v44.683l-22.342,2.166v22.341l22.342-2.167
		v44.683l-22.342,2.167v22.341L558.547,227.002z M603.229,133.305l67.024-6.499V82.124l-67.024,6.499V133.305z M603.229,200.329
		l67.024-6.499v-44.683l-67.024,6.499V200.329z"/>
	<path fill="#D51084" d="M759.618,207.506V51.118l44.683-4.333v134.047l89.365-8.665v22.341L759.618,207.506z"/>
	<path fill="#D51084" d="M916.007,192.342V35.954l156.389-15.164v22.341L960.689,53.963v44.682l89.364-8.665v22.341l-89.364,8.665
		v44.683l111.706-10.831v22.341L916.007,192.342z"/>
</g>
<g>
	<path fill="#D51084" d="M23.21,390.389v-92.777l26.507-2.57v13.256l13.254-1.285v13.252l13.253-1.285v-13.252l13.253-1.285v-13.256
		l26.507-2.57v92.777l-26.507,2.57v-53.016l-13.253,1.285v26.508l-13.253,1.285v-26.508l-13.254,1.285v53.016L23.21,390.389z"/>
	<path fill="#D51084" d="M129.239,380.107v-66.27l13.253-1.283v-13.254l13.253-1.285v-13.254l39.761-3.856v13.255l13.253-1.285
		v13.254l13.253-1.285v66.268l-26.507,2.57v-26.508l-39.761,3.855v26.508L129.239,380.107z M155.746,337.775l39.761-3.855v-26.506
		l-13.253,1.285v-13.254L169,296.73v13.254l-13.254,1.285V337.775z"/>
	<path fill="#D51084" d="M235.268,369.826v-92.775l79.522-7.711v13.254l13.253-1.285v39.76l-26.507,2.57v13.254l13.253-1.285v13.254
		l13.253-1.285v13.254l-39.761,3.855v-13.254l-13.253,1.285v-13.254l-13.254,1.285v26.508L235.268,369.826z M261.775,327.494
		l26.507-2.57v-13.252l13.254-1.285v-26.508l-39.761,3.855V327.494z"/>
	<path fill="#D51084" d="M381.058,355.691v-13.254l-13.254,1.285v-13.254l-13.253,1.285V318.5l-13.254,1.285V266.77l26.507-2.57
		v39.762l13.254-1.285v13.254l13.253-1.285v-13.254l13.254-1.285v-39.762l26.507-2.57v53.015l-13.253,1.285v13.254l-13.253,1.285
		v13.254l-13.254,1.285v13.254L381.058,355.691z"/>
	<path fill="#D51084" d="M447.326,349.266v-92.777l92.775-8.996v13.255l-66.269,6.425v26.507l53.015-5.141v13.254l-53.015,5.141
		v26.508l66.269-6.426v13.254L447.326,349.266z"/>
	<path fill="#D51084" d="M566.608,337.699v-92.776l26.508-2.57v79.522l53.014-5.141v13.254L566.608,337.699z"/>
	<path fill="#D51084" d="M672.638,327.418v-92.776l26.508-2.57v79.522l53.014-5.139v13.254L672.638,327.418z"/>
	<path fill="#D51084" d="M778.666,317.139v-13.254l-13.253,1.285v-66.269l13.253-1.285v-13.254l66.27-6.425v13.254l13.253-1.285
		v66.269l-13.253,1.285v13.254L778.666,317.139z M791.92,302.6l39.762-3.855v-66.269l-39.762,3.855V302.6z"/>
	<path fill="#D51084" d="M884.695,306.857v-13.254l-13.253,1.285v-79.523l26.507-2.57v79.523l39.762-3.855V208.94l26.507-2.57
		v79.522l-13.253,1.285v13.254L884.695,306.857z"/>
	<path fill="#D51084" d="M990.725,296.576v-13.254l-13.253,1.285v-13.254l26.507-2.57v13.254l39.762-3.855v-26.507l-53.016,5.14
		v-13.253l-13.253,1.285v-26.507l13.253-1.285V203.8l66.269-6.425v13.254l13.254-1.285v13.253l-26.507,2.57v-13.254l-39.762,3.855
		v26.507l53.015-5.14v13.253l13.254-1.285v26.507l-13.254,1.285v13.254L990.725,296.576z"/>
</g>
</svg>
